# xmcd CD database file
#
# Track frame offsets:
#	150
#	19874
#	40993
#	60610
#	82134
#	107585
#	129073
#	145027
#	165954
#	186371
#	206881
#	227978
#	251672
#
# Disc length: 3437 seconds
#
# Revision: 0
# Processed by: cddbd v1.5.2PL0 Copyright (c) Steve Scherf et al.
# Submitted via: CDex 1.70beta2
#
DISCID=b00d6b0d
DTITLE=Fadhl Chaker - Allahou A3lam
DYEAR=2007
DGENRE=Rhythmic Soul
TTITLE0=Insa illi ra7h
TTITLE1=Illi Inta Cahifou
TTITLE2=Allahou A3lam
TTITLE3=Ana B7ebbik
TTITLE4=K9albi 3aiech
TTITLE5=Ghaieb 3nni lih
TTITLE6=La7hdhat Lou2e
TTITLE7=Kont Mfakker
TTITLE8=Bousni w sala7ni
TTITLE9=Imbare7 billil
TTITLE10=Wadda3tik
TTITLE11=Khidhni Ma3ak (Duo and Yara)
TTITLE12=Musique
EXTD=YEAR: 2007
EXTT0=
EXTT1=
EXTT2=
EXTT3=
EXTT4=
EXTT5=
EXTT6=
EXTT7=
EXTT8=
EXTT9=
EXTT10=
EXTT11=
EXTT12=
PLAYORDER=
